/* XPM */
static char * document_new_symbolic_symbolic_xpm[] = {
"64 64 17 1",
" 	c None",
".	c #000000",
"+	c #FFFF00",
"@	c #5AFF00",
"#	c #38F904",
"$	c #FC00FF",
"%	c #0042FF",
"&	c #0438F9",
"*	c #FFF600",
"=	c #F6F904",
"-	c #FF0000",
";	c #F82F07",
">	c #683737",
",	c #5D9EA0",
"'	c #F9B704",
")	c #85155F",
"!	c #F8F0F5",
"                                                                ",
"                                                                ",
"                                                                ",
"                                                                ",
"          ................                                      ",
"         ..................                                     ",
"        ....................                                    ",
"        ....................                                    ",
"        ....................        ........                    ",
"        ....................        .++++++.                    ",
"        ...................         .++++++.                    ",
"        ..................          .++++++.                    ",
"        ........                    .++++++.                    ",
"        ........                    .++++++.                    ",
"        ........                    .++++++.                    ",
"        ........@@@@@@@@@@@@@@@@@@@@.++++++.@@@#                ",
"        ........@@@@@@@@@@@@.........++++++.........            ",
"        ........@@@@@@@@@@@@.++++++++++++++++++++++.            ",
"        ........@@@@@@@@@@@@.++++++++++++++++++++++.            ",
"        ........$$$$$$$$$$$$.++++++++++++++++++++++.            ",
"        ........$$$$$$$$$$$$.++++++++++++++++++++++.            ",
"        ........$$$$$$$$$$$$.++++++++++++++++++++++.            ",
"        ........$$$$$$$$$$$$.++++++++++++++++++++++.            ",
"        ........%%%%%%%%%%%%.........++++++.........            ",
"        ........%%%%%%%%%%%%%%%%%%%%.++++++.%%%&                ",
"        ........%%%%%%%%%%%%%%%%%%%%.++++++.%%%&                ",
"        ........%%%%%%%%%%%%%%%%%%%%.++++++.%%%&                ",
"        ........********************.++++++.***=                ",
"        ........********************.++++++.***=                ",
"        ........********************.++++++.***=                ",
"        ........********************.++++++.***=                ",
"        ........--------------------........---;                ",
"        ........-------------------------------;                ",
"        ........-------------------------------;                ",
"        ........-------------------------------;                ",
"        ........>>>>>>>>>>>>>>>>>>>>>>>>>>>>>>>>                ",
"        ........>>>>>>>>>>>>>>>>>>>>>>>>>>>>>>>>  ....          ",
"        ........>>>>>>>>>>>>>>>>>>>>>>>>>>>>>>>> ......         ",
"        ........>>>>>>>>>>>>>>>>>>>>>>>>>>>>>>>>........        ",
"        ........,,,,,,,,,,,,,,,,,,,,,,,,,,,,,,,,........        ",
"        ........,,,,,,,,,,,,,,,,,,,,,,,,,,,,,,,,........        ",
"        ........,,,,,,,,,,,,,,,,,,,,,,,,,,,,,,,,........        ",
"        ........,,,,,,,,,,,,,,,,,,,,,,,,,,,,,,,,........        ",
"        ........''''''''''''''''''''''''''''''''........        ",
"        ........''''''''''''''''''''''''''''''''........        ",
"        ........''''''''''''''''''''''''''''''''........        ",
"        ........''''''''''''''''''''''''''''''''........        ",
"        ........))))))))))))))))))))))))))))))))........        ",
"        ........))))))))))))))))))))))))))))))))........        ",
"        ........))))))))))))))))))))))))))))))))........        ",
"        ........))))))))))))))))))))))))))))))))........        ",
"        ........!!!!!!!!!!!!!!!!!!!!!!!!!!!!!!!!........        ",
"        ........!!!!!!!!!!!!!!!!!!!!!!!!!!!!!!!!........        ",
"        ........!!!!!!!!!!!!!!!!!!!!!!!!!!!!!!!!........        ",
"        ........!!!!!!!!!!!!!!!!!!!!!!!!!!!!!!!!........        ",
"        ........                                ........        ",
"        ................................................        ",
"        ................................................        ",
"        ................................................        ",
"        ................................................        ",
"        ................................................        ",
"        ................................................        ",
"         ..............................................         ",
"          ............................................          "};
