/* XPM */
static char * document_open_symbolic_symbolic_xpm[] = {
"64 64 9 1",
" 	c None",
".	c #000000",
"+	c #F8F0F5",
"@	c #26EC0C",
"#	c #14F5F8",
"$	c #F82F14",
"%	c #142FF8",
"&	c #FAFD00",
"*	c #030300",
"                                                                ",
"                                                                ",
"                                                                ",
"                                                                ",
"                  ..........................                    ",
"                 ............................                   ",
"                ..............................                  ",
"                ...............................                 ",
"                ................................                ",
"                .................................               ",
"                ..................................              ",
"                ...................................             ",
"                ........++++++++++++++++............            ",
"                ........++++++++++++++++.............           ",
"                ........++++++++++++++++..............          ",
"                ........++++++++++++++++...............         ",
"                ........@@@@@@@@@@@@@@@@................        ",
"                ........@@@@@@@@@@@@@@@@.................       ",
"                ........@@@@@@@@@@@@@@@@..................      ",
"                ........@@@@@@@@@@@@@@@@...................     ",
" ...........    ........################....................    ",
"............    ........################....................    ",
"............    ........################....................    ",
"............    ........################....................    ",
"............    ........$$$$$$$$$$$$$$$$$$$$$$$$$$$$........    ",
"............    ........$$$$$$$$$$$$$$$$$$$$$$$$$$$$........    ",
"............    ........$$$$$$$$$$$$$$$$$$$$$$$$$$$$........    ",
"............    ........$$$$$$$$$$$$$$$$$$$$$$$$$$$$........    ",
"............    ........%%%%%%%%%%%%%%%%%%%%%%%%%%%%........    ",
"............    ........%%%%%%%%%%%%%%%%%%%%%%%%%%%%........    ",
"............    ........%%%%%%%%%%%%%%%%%%%%%%%%%%%%........    ",
"............    ........%%%%%%%%%%%%%%%%%%%%%%%%%%%%........    ",
".........       ........&&&&&&&&&&&&&&&&&&&&&&&&&&&&........    ",
"........        ........&&&&&&&&&&&&&&&&&&&&&&&&&&&&........    ",
"........        ........&&&&&&&&&&&&&&&&&&&&&&&&&&&&*.......    ",
"........        ........&&&&&&&&&&&&&&&&&&&&&&&&&&&&*.......    ",
"........                                                        ",
"........                                                        ",
"........                                                        ",
"........                                                        ",
"........       ................................................ ",
"........       .................................................",
"........       .................................................",
"........       .................................................",
"........      ................................................. ",
"........      ................................................. ",
"........      ................................................. ",
"........      ................................................. ",
"........     .................................................. ",
"........     .................................................  ",
"........     .................................................  ",
"........     .................................................  ",
"........    ..................................................  ",
"........    .................................................   ",
"........    .................................................   ",
".........  ..................................................   ",
".............................................................   ",
".............................................................   ",
"............................................................    ",
"............................................................    ",
"............................................................    ",
"............................................................    ",
"...........................................................     ",
" ..........................................................     "};
