/* XPM */
static char * colln_save_as_xpm[] = {
"64 64 7 1",
" 	c None",
".	c #000000",
"+	c #5AFF00",
"@	c #29E75E",
"#	c #E73629",
"$	c #29C5E7",
"%	c #FFFF00",
"          ............................................          ",
"         ..............................................         ",
"        ................................................        ",
"        ................................................        ",
"        ....                                        ....        ",
"        ....                                        ....        ",
"        ....                                        ....        ",
"        ....                                        ....        ",
"        ....                                        ....        ",
"        ....                                        ....        ",
"        ....                                        ....        ",
"        ....                                        ....        ",
"        ................................................        ",
"        ................................................        ",
"         ..............................................         ",
"          ............................................          ",
"                            .++++++.                            ",
"                            .++++++.                            ",
"                            .++++++.                            ",
"                            .++++++.                            ",
"                ......      .++++++.      ......                ",
"                .++++..     .++++++.     ..++++.                ",
"                .+++++..    .++++++.    ..+++++.                ",
"                .++++++..   .++++++.   ..++++++.                ",
"                .+++++++..  .++++++.  ..+++++++.                ",
"                ..+++++++.. .++++++. ..+++++++..                ",
"                 ..+++++++...++++++...+++++++..                 ",
"                  ..+++++++..++++++..+++++++..                  ",
"                   ..++++++++++++++++++++++..                   ",
"                    ..++++++++++++++++++++..                    ",
"                     ..++++++++++++++++++..                     ",
"                      ..++++++++++++++++..                      ",
"                       ..++++++++++++++..                       ",
"                        ..++++++++++++..                        ",
"                         ..++++++++++..                         ",
"                          ..++++++++..                          ",
"                 ..        ..++++++..        ..                 ",
"                ....@@@@@@@@..++++..@@@@@@@@....                ",
"               .....@@@@@@@@@..++..@@@@@@@@@.....               ",
"               ....###########....###########....               ",
"              .....##########################.....              ",
"             .....$$$$$$$$$$$$$$$$$$$$$$$$$$$$.....             ",
"             ....$$$$$$$$$$$$$$$$$$$$$$$$$$$$$$....             ",
"            .....%%%%%%%%%%%%%%%%%%%%%%%%%%%%%%.....            ",
"            ........................................            ",
"            ........................................            ",
"            ........................................            ",
"            ........................................            ",
"            ........................................            ",
"            ........................................            ",
"            ............   ..........  .............            ",
"            ............    ........    ............            ",
"            ............                ............            ",
"            ............                ............            ",
"            .............              .............            ",
"            ..............            ..............            ",
"            ........................................            ",
"            ........................................            ",
"            ........................................            ",
"            ........................................            ",
"                                                                ",
"                                                                ",
"                                                                ",
"                                                                "};
