/* XPM */
static char * mixtures_print_xpm[] = {
"64 64 4 1",
" 	c None",
".	c #000000",
"+	c #FFFFFF",
"@	c #FD0404",
"                                                                ",
"                                                                ",
"                                                                ",
"                                                                ",
"                ................................                ",
"                .++++++++++++++++++++++++++++++.                ",
"                .++++++++++++++++++++++++++++++.                ",
"                .+...++++++++++++++++++++++++++.                ",
"                .+...+..++..++++.......++++++++.                ",
"                .++..+++++++++++++++++..+++..++.                ",
"                .++++++++++++++++++++++++++++++.                ",
"                .+@@@@@.+.+++...+.++..+++++.+++.                ",
"                .+@@@@@...+++++..+++++.++.+++++.                ",
"                .++++++++++++++++++++++++++++++.                ",
"                                                                ",
"                                                                ",
"      ....................................................      ",
"     ......................................................     ",
"    ........................................................    ",
"    ........................................................    ",
"    ........................................................    ",
"    ........................................................    ",
"    ........................................................    ",
"    ........................................................    ",
"    ........................................................    ",
"    ........................................................    ",
"    ........................................................    ",
"    ........................................................    ",
"    ........................................................    ",
"    ........................................................    ",
"    ........................................................    ",
"    ........................................................    ",
"    ........                                        ........    ",
"    ........                                        ........    ",
"    ........    .++++++++++++++++++++++++++++++.    ........    ",
"    ........    .++++++++++++++++++++++++++++++.    ........    ",
"    ........    .++++++++++++++++++++++++++++++.    ........    ",
"    ........    .++++++++++++++++++++++++++++++.    ........    ",
"     .......    .++++++++++++++++++++++++++++++.    .......     ",
"      ......    .++++++++++++++++++++++++++++++.    ......      ",
"                .++++++++++++++++++++++++++++++.                ",
"                .++++++++++++++++++++++++++++++.                ",
"                .++++++++++++++++++++++++++++++.                ",
"                .++++++++++++++++++++++++++++++.                ",
"                .++++++++++++++++++++++++++++++.                ",
"                .++++++++++++++++++++++++++++++.                ",
"                .++++++++++++++++++++++++++++++.                ",
"                .++++++++++++++++++++++++++++++.                ",
"                .++++++++++++++++++++++++++++++.                ",
"                .++++++++++++++++++++++++++++++.                ",
"                .++++++++++++++++++++++++++++++.                ",
"                .++++++++++++++++++++++++++++++.                ",
"                .++++++++++++++++++++++++++++++.                ",
"                .++++++++++++++++++++++++++++++.                ",
"                .++++++++++++++++++++++++++++++.                ",
"                ................................                ",
"                                                                ",
"                                                                ",
"                                                                ",
"                                                                ",
"                                                                ",
"                                                                ",
"                                                                ",
"                                                                "};
