/* XPM */
static char *paint_standard_load_xpm[] = {
"64 64 12 1",
"0	c #242424",
" 	c None",
"2	c #DB0000",
"3	c #004900",
"4	c #00DB00",
"5	c #000024",
"6	c #DBDB00",
"7	c #242449",
"8	c #00DBDB",
"9	c #242400",
"A	c #B6926D",
"B	c #499249",
"0000000000000000000000000000                                    ",
"0222222222222222222222222220                                    ",
"0222222222222222222222222220             3333333333             ",
"0222222222222222222222222220             3444444443             ",
"0222222222222222222222222220            534444444435555555555555",
"0222222222222222222222222220            534444444436666666666665",
"0222222222222222222222222220            534444444436666666666665",
"0222222222222222222222222220            534444444436666666666665",
"0222222222222222222222222220            534444444436666666666665",
"0222222222222222222222222220            534444444436666666666665",
"0222222222222222222227777777777777777777534444444437777666666665",
"0222222222222222222227888888888888888888834444444438887666666665",
"0222222222222222222227888888888888888888834444444438887666666665",
"0222222222222222222227888888888888888888834444444438887666666665",
"0222222222222222222227888888888888888888834444444438887666666665",
"0222222222222222222227888888883333333333334444444433333333333335",
"0222222222222222222227888888883444444444444444444444444444444435",
"0222222222222222222227888888883444444444444444444444444444444435",
"022222222222222222222788888888344444444444444444444444444444443 ",
"022222222222222222222788888888344444444444444444444444444444443 ",
"022222222222222222222788888888344444444444444444444444444444443 ",
"022222222222222222222788888888344444444444444444444444444444443 ",
"022222222222222222222788888888344444444444444444444444444444443 ",
"022222222222222222222788888888333333333333444444443333333333333 ",
"0222222222222255555557888888888889AAAAAAA3444444443AAAAAA9      ",
"022222222222225BBBBBB7888888888889AAAAAAA3444444443AAAAAA9      ",
"022222222222225BBBBBB7888888888889AAAAAAA3444444443AAAAAA9      ",
"022222222222225BBBBBB7888888888889AAAAAAA3444444443AAAAAA9      ",
"022222222222225BBBBBB7888888888889AAAAAAA3444444443AAAAAA9      ",
"022222222222225BBBBBB7888888888889AAAAAAA3444444443AAAAAA9      ",
"022222222222225BBBBBB7888888888889AAAAAAA3444444443AAAAAA9      ",
"022222222222225BBBBBB7888888888889AAAAAAA3444444443AAAAAA9      ",
"022222222222225BBBBBB7888888888889AAAAAAA3444444443AAAAAA9      ",
"000000000000005BBBBBB7888888888889AAAAAAA3444444443AAAAAA9      ",
"              5BBBBBB7888888888889AAAAAAA3444444443AAAAAA9      ",
"              5BBBBBB7777777777779AAAAAAA3333333333AAAAAA9      ",
"              5BBBBBBBBBBBBBBBBBB9AAAAAAAAAAAAAAAAAAAAAAA9      ",
"              5BBBBBBBBBBBBBBBBBB9AAAAAAAAAAAAAAAAAAAAAAA9      ",
"              5BBBBBBBBBBBBBBBBBB9AAAAAAAAAAAAAAAAAAAAAAA9      ",
"              5BBBBBBBBBBBBBBBBBB9AAAAAAAAAAAAAAAAAAAAAAA9      ",
"              5BBBBBBBBBBBBBBBBBB9AAAAAAAAAAAAAAAAAAAAAAA9      ",
"              5BBBBBBBBBBBBBBBBBB9AAAAAAAAAAAAAAAAAAAAAAA9      ",
"              5BBBBBBBBBBBBBBBBBB9AAAAAAAAAAAAAAAAAAAAAAA9      ",
"              5BBBBBBBBBBBBBBBBBB9AAAAAAAAAAAAAAAAAAAAAAA9      ",
"              5BBBBBBBBBBBBBBBBBB9AAAAAAAAAAAAAAAAAAAAAAA9      ",
"              5BBBBBBBBBBBBBBBBBB9AAAAAAAAAAAAAAAAAAAAAAA9      ",
"              5BBBBBBBBBBBBBBBBBB9AAAAAAAAAAAAAAAAAAAAAAA9      ",
"              5BBBBBBBBBBBBBBBBBB9AAAAAAAAAAAAAAAAAAAAAAA9      ",
"              5BBBBBBBBBBBBBBBBBB9999999999999999999999999      ",
"              5BBBBBBBBBBBBBBBBBBBBBB5                          ",
"              5BBBBBBBBBBBBBBBBBBBBBB5                          ",
"              5BBBBBBBBBBBBBBBBBBBBBB5                          ",
"              5BBBBBBBBBBBBBBBBBBBBBB5                          ",
"              5BBBBBBBBBBBBBBBBBBBBBB5                          ",
"              5BBBBBBBBBBBBBBBBBBBBBB5                          ",
"   5555 5555555BB55BBBB55BBB55B55555B5   55    55555   55555    ",
"  5        5  555555555555555555555555   55    55  5   55   55  ",
"  5        5    55 5   555  55 55    5  55 5   55  55  55    5  ",
"   555     5    5  5   5  5 55 55    5  5  5   55  5   55    5  ",
"     55    5    5  5   5  5 55 55    5  5  5   55555   55    5  ",
"      55   5   555555  5   555 55    5 555555  55  5   55    5  ",
"      55   5   5    5  5   555 55   55 5    5  55   5  55   55  ",
"  55555    5   5    55 5    55 55555   5    55 55   5  55555    ",
"                                                                "
};
